<svg width="20" height="20" viewBox="0 0 20 20" fill="none" xmlns="http://www.w3.org/2000/svg">
<path d="M10 0C13.5214 0 15.5186 2.5076 15.8086 5.53456H15.8971C18.1629 5.53456 20 7.50527 20 9.9364C20 12.3675 18.1629 14.3382 15.8971 14.3382L14.8929 14.3366L14.8743 14.3908L12.7557 18.6987C12.6706 18.8736 12.5297 19.0067 12.361 19.0717C12.1922 19.1366 12.0078 19.1288 11.844 19.0496C11.6801 18.9705 11.5488 18.8258 11.4759 18.6441C11.403 18.4623 11.3938 18.2567 11.45 18.0678L11.5014 17.9355L13.2714 14.3382H10.6243L10.6043 14.3924L8.48571 18.7002C8.40056 18.8752 8.25974 19.0083 8.09098 19.0733C7.92222 19.1382 7.73777 19.1304 7.57395 19.0512C7.41014 18.9721 7.27884 18.8274 7.20592 18.6456C7.13301 18.4639 7.12376 18.2583 7.18 18.0694L7.23143 17.9371L9.00143 14.3382H6.33143L4.2 18.6987C4.11989 18.862 3.991 18.9889 3.83572 19.0573C3.68044 19.1257 3.50858 19.1313 3.35 19.073L3.23143 19.0157C3.0847 18.9266 2.97061 18.783 2.90901 18.6098C2.84742 18.4366 2.84221 18.2448 2.89429 18.0678L2.94571 17.9355L4.70429 14.3382H4.10286C1.83714 14.3382 0 12.3675 0 9.9364C0 7.59449 1.70286 5.68113 3.85286 5.54252L4.19143 5.53456C4.48429 2.48689 6.47857 0 10 0ZM10 1.59314C7.64286 1.59314 5.59 3.61642 5.59 6.41238C5.59 6.85527 5.22714 7.20257 4.81143 7.20257H4.02571C2.59143 7.20257 1.42857 8.44363 1.42857 9.97463C1.42857 11.5025 2.59143 12.7451 4.02571 12.7451H15.9743C17.4086 12.7451 18.5714 11.504 18.5714 9.97304C18.5714 8.44363 17.4086 7.20257 15.9743 7.20257H15.1886C14.7743 7.20257 14.41 6.85527 14.41 6.41238C14.41 3.58137 12.3571 1.59314 10 1.59314Z" fill="black"/>
</svg>
