<svg width="24" height="24" viewBox="0 0 24 24" fill="none" xmlns="http://www.w3.org/2000/svg">
<path d="M16 17.472C17.0989 18.4578 18.5237 19.002 20 19H22V21H20C18.5956 21.0022 17.2157 20.6331 16 19.93C14.7844 20.6333 13.4044 21.0024 12 21C10.5956 21.0022 9.21567 20.6331 8 19.93C6.7844 20.6333 5.40438 21.0024 4 21H2V19H4C5.537 19 6.94 18.422 8 17.472C9.09893 18.4578 10.5237 19.002 12 19C13.537 19 14.94 18.422 16 17.472ZM12.573 1.532L12.673 1.612L23 11H20V17C19.2237 17.0006 18.4579 16.8202 17.7635 16.473C17.0691 16.1258 16.4653 15.6214 16 15C15.5348 15.6215 14.9309 16.1259 14.2365 16.4731C13.5422 16.8203 12.7763 17.0007 12 17C11.2237 17.0005 10.4579 16.8201 9.76356 16.4729C9.0692 16.1257 8.46536 15.6214 8 15C7.53475 15.6215 6.93093 16.1259 6.23654 16.4731C5.54216 16.8203 4.77635 17.0007 4 17L3.999 11H1L11.327 1.612C11.4791 1.47354 11.6701 1.38534 11.8741 1.35939C12.0781 1.33344 12.2851 1.37102 12.467 1.467L12.573 1.532Z" fill="white"/>
</svg>
