<svg width="20" height="20" viewBox="0 0 20 20" fill="none" xmlns="http://www.w3.org/2000/svg">
<g clip-path="url(#clip0_426_176)">
<path d="M17.012 2.55275C16.8476 2.44403 16.6638 2.36937 16.4711 2.33305C16.2783 2.29673 16.0805 2.29945 15.8888 2.34107C15.6971 2.38269 15.5153 2.46238 15.3538 2.5756C15.1924 2.68882 15.0544 2.83334 14.9478 3.00091L6.58436 16.137L2.50565 12.2942C2.36175 12.1586 2.19305 12.0532 2.00918 11.9841C1.82531 11.9149 1.62988 11.8833 1.43404 11.8912C1.03852 11.9069 0.66536 12.0822 0.39664 12.3783C0.12792 12.6745 -0.0143442 13.0672 0.00114425 13.4703C0.0166327 13.8733 0.188605 14.2535 0.479229 14.5274L5.83459 19.5727C5.83459 19.5727 5.98833 19.7076 6.05947 19.7547C6.2239 19.8635 6.40775 19.9382 6.60053 19.9746C6.79331 20.011 6.99123 20.0083 7.18299 19.9666C7.37474 19.925 7.55656 19.8453 7.71806 19.732C7.87956 19.6188 8.01757 19.4742 8.12421 19.3065L17.4518 4.65617C17.5585 4.48864 17.6318 4.30134 17.6674 4.10495C17.7031 3.90856 17.7004 3.70695 17.6596 3.51162C17.6187 3.31628 17.5405 3.13106 17.4294 2.96654C17.3183 2.80202 17.1765 2.66141 17.012 2.55275Z" fill="#31373D"/>
</g>
<defs>
<clipPath id="clip0_426_176">
<rect width="20" height="20" fill="white"/>
</clipPath>
</defs>
</svg>
