<svg width="17" height="12" viewBox="0 0 17 12" fill="none" xmlns="http://www.w3.org/2000/svg">
<path d="M16.0556 9.82465C16.2963 9.82485 16.5278 9.89334 16.7028 10.0161C16.8779 10.1389 16.9832 10.3067 16.9973 10.4853C17.0114 10.6638 16.9332 10.8397 16.7787 10.9768C16.6242 11.114 16.4051 11.2021 16.1661 11.2233L16.0556 11.2282H0.944444C0.703725 11.228 0.472192 11.1595 0.297152 11.0367C0.122112 10.9139 0.0167781 10.7461 0.00267078 10.5675C-0.0114365 10.389 0.0667482 10.2132 0.22125 10.076C0.375752 9.93884 0.594909 9.85069 0.833944 9.82957L0.944444 9.82465H16.0556ZM16.0556 4.91233C16.306 4.91233 16.5463 4.98626 16.7234 5.11787C16.9005 5.24947 17 5.42797 17 5.61409C17 5.80021 16.9005 5.9787 16.7234 6.11031C16.5463 6.24191 16.306 6.31585 16.0556 6.31585H0.944444C0.693962 6.31585 0.453739 6.24191 0.276621 6.11031C0.0995036 5.9787 0 5.80021 0 5.61409C0 5.42797 0.0995036 5.24947 0.276621 5.11787C0.453739 4.98626 0.693962 4.91233 0.944444 4.91233H16.0556ZM16.0556 0C16.306 0 16.5463 0.0739355 16.7234 0.205541C16.9005 0.337147 17 0.515642 17 0.701761C17 0.88788 16.9005 1.06638 16.7234 1.19798C16.5463 1.32959 16.306 1.40352 16.0556 1.40352H0.944444C0.693962 1.40352 0.453739 1.32959 0.276621 1.19798C0.0995036 1.06638 0 0.88788 0 0.701761C0 0.515642 0.0995036 0.337147 0.276621 0.205541C0.453739 0.0739355 0.693962 0 0.944444 0H16.0556Z" fill="black"/>
</svg>
